<svg xmlns="http://www.w3.org/2000/svg" viewBox="0 0 640 400" role="img" aria-labelledby="title desc">
  <title id="title">HLA</title>
  <desc id="desc">An immune recognition shield hovering above a cell surface marker field.</desc>
  <defs>
    <linearGradient id="bg" x1="0" x2="1" y1="0" y2="1"><stop stop-color="#eef8f1"/><stop offset="1" stop-color="#87b79b"/></linearGradient>
  </defs>
  <rect width="640" height="400" rx="36" fill="url(#bg)"/>
  <path d="M320 78l102 34v74c0 72-40 128-102 156-62-28-102-84-102-156v-74z" fill="#fdfefe" stroke="#4d7d63" stroke-width="14"/>
  <path d="M278 188l28 28 60-68" fill="none" stroke="#4d7d63" stroke-linecap="round" stroke-linejoin="round" stroke-width="18"/>
  <g fill="#ffffff" stroke="#4d7d63" stroke-width="8" opacity=".92">
    <rect x="132" y="284" width="32" height="40" rx="12"/><rect x="184" y="270" width="32" height="54" rx="12"/><rect x="236" y="286" width="32" height="38" rx="12"/>
    <rect x="372" y="286" width="32" height="38" rx="12"/><rect x="424" y="270" width="32" height="54" rx="12"/><rect x="476" y="284" width="32" height="40" rx="12"/>
  </g>
</svg>
